<svg xmlns="http://www.w3.org/2000/svg" viewBox="0 0 16 16">
  <path fill="#4527a0" d="M3 1h6.5L13 4.5V14a1 1 0 0 1-1 1H3a1 1 0 0 1-1-1V2a1 1 0 0 1 1-1z"/>
  <path fill="#5e35b1" d="M9 1v4h4L9 1z"/>
  <!-- DLL / Shared Library Gears & Connector -->
  <path fill="#ede7f6" d="M8 6.5a1.2 1.2 0 1 0 0 2.4 1.2 1.2 0 0 0 0-2.4zm2 1l-.5-.2c0-.1-.1-.3-.2-.4l.3-.5-.5-.5-.5.3c-.1-.1-.3-.2-.4-.2l-.2-.5h-.7l-.2.5c-.1 0-.3.1-.4.2l-.5-.3-.5.5.3.5c-.1.1-.2.3-.2.4l-.5.2v.7l.5.2c0 .1.1.3.2.4l-.3.5.5.5.5-.3c.1.1.3.2.4.2l.2.5h.7l.2-.5c.1 0 .3-.1.4-.2l.5.3.5-.5-.3-.5c.1-.1.2-.3.2-.4l.5-.2v-.7z"/>
  <!-- Second small gear -->
  <circle cx="9.5" cy="11.5" r="1.3" fill="#b39ddb"/>
  <circle cx="9.5" cy="11.5" r="0.5" fill="#4527a0"/>
</svg>
